<svg width="127" height="24" viewBox="0 0 127 24" fill="none" xmlns="http://www.w3.org/2000/svg">
<path d="M8.61909 0.00696298C6.20791 -0.0887397 3.77237 0.8067 2.10245 2.40883C0.728052 3.72873 9.15147e-05 5.39644 9.15147e-05 7.23207C0.00318515 7.72152 0.0641614 8.20888 0.181749 8.684C0.191054 8.72211 0.200801 8.75977 0.211435 8.79743C0.214536 8.80939 0.217638 8.8218 0.221182 8.83376C0.239348 8.90155 0.265489 8.98529 0.284984 9.05219C0.852554 7.88648 1.46222 7.2139 1.81933 6.89578C1.82199 6.8559 1.82464 6.8271 1.82952 6.77615C1.83572 6.70792 1.8437 6.64013 1.85256 6.57323L1.86098 6.51297C1.86895 6.45892 1.87826 6.4053 1.888 6.35258C2.11397 5.13813 2.77857 4.26573 3.35323 3.71411C4.65408 2.46466 6.63991 1.74024 8.54421 1.81424C12.6111 1.97773 15.5075 4.94185 15.5075 9.02073C15.5075 12.7381 12.655 15.6938 8.65188 16.2082C7.44895 16.3624 6.4866 16.2707 5.63902 16.1896C5.26861 16.1541 4.90574 16.1196 4.54552 16.108C2.89864 16.0726 1.89598 16.743 1.89598 16.743C1.31895 17.0861 0.84088 17.5732 0.508554 18.1565C0.176228 18.7399 0.0010266 19.3995 9.15147e-05 20.0708C-0.00103861 20.6243 0.115017 21.1718 0.340624 21.6772C0.566232 22.1826 0.89628 22.6345 1.30906 23.0032C1.72185 23.3719 2.20801 23.6491 2.73558 23.8164C3.26315 23.9838 3.82017 24.0376 4.37001 23.9742C4.91986 23.9109 5.45006 23.7319 5.92575 23.4489C6.40144 23.166 6.81185 22.7855 7.12997 22.3326C7.44809 21.8797 7.66673 21.3646 7.77149 20.8211C7.87626 20.2776 7.86479 19.7181 7.73783 19.1794C7.73207 19.155 7.72586 19.1302 7.71922 19.1054C7.71523 19.0886 7.7108 19.0713 7.70593 19.0544C7.69751 19.0225 7.68865 18.9911 7.6789 18.9596C7.23619 18.9753 6.79293 18.9579 6.3528 18.9078C6.07411 18.8737 5.84017 18.8458 5.6399 18.8249L5.67136 18.8746L5.67402 18.8781L5.67712 18.883C5.71389 18.9392 5.74801 18.9973 5.77947 19.0562C5.80118 19.0974 5.82156 19.1386 5.84061 19.1812C5.96726 19.4608 6.03383 19.7639 6.036 20.0708C6.0496 20.3505 6.00756 20.63 5.91229 20.8933C5.81703 21.1566 5.67046 21.3983 5.48106 21.6045C5.29167 21.8107 5.06322 21.9772 4.80898 22.0945C4.55473 22.2117 4.27974 22.2773 3.99995 22.2874C3.72017 22.2976 3.44115 22.2521 3.17908 22.1536C2.91701 22.0551 2.6771 21.9055 2.47327 21.7136C2.26944 21.5216 2.10573 21.2912 1.99165 21.0355C1.87757 20.7798 1.81538 20.504 1.80869 20.2241C1.80869 20.1732 1.80869 20.1218 1.80869 20.0708C1.81054 19.656 1.93594 19.2511 2.1689 18.9078C2.40185 18.5645 2.7318 18.2984 3.11663 18.1435C3.11663 18.1435 3.50875 17.9304 4.20924 17.8998C4.58097 17.8825 4.87384 17.8684 6.26861 18.0425C7.48129 18.194 8.93012 17.9982 9.22565 17.9539L9.24647 17.9508L9.26907 17.9472H9.2797C13.997 17.1665 17.3139 13.5489 17.3139 9.02073C17.3139 3.92014 13.706 0.213876 8.61909 0.00696298ZM11.4051 8.12839C11.0453 6.50854 9.36699 4.99458 6.53446 5.4948C4.50299 5.85413 2.93852 7.00345 1.92655 8.20992C1.21454 9.05175 0.746661 10.139 0.746661 10.139C0.253969 11.2183 -0.0313663 12.1842 0.00274992 13.3606C0.0324355 14.3331 0.306694 15.1014 0.772802 15.7177C0.894399 15.8745 1.02962 16.0202 1.17688 16.1532C1.26372 16.0912 1.35352 16.0321 1.44626 15.976C1.44626 15.976 2.0382 15.5826 3.05327 15.4151C2.91105 15.3424 2.71211 15.1701 2.66692 15.1315C2.57101 15.0498 2.48058 14.9619 2.3962 14.8683C2.02048 14.4505 1.82775 13.9379 1.80825 13.3056C1.79199 12.7493 1.88099 12.1949 2.07055 11.6716C2.07055 11.6716 2.36297 10.7775 2.86142 9.98175C3.60888 8.80009 5.04309 7.59273 6.84903 7.27372C6.8734 7.26973 9.27483 6.86521 9.64036 8.51874C9.7436 8.98396 9.61466 9.49349 9.28591 9.91883C8.74536 10.6175 7.72719 11.0265 6.41926 11.0744C5.67845 11.0996 4.74225 10.972 3.94605 10.6499C3.89289 10.6282 3.73338 10.5506 3.68509 10.5254C3.14587 11.1625 2.90573 12.1581 2.90529 12.1608C2.90484 12.1634 2.90529 12.167 2.90529 12.167C2.94959 12.1896 3.11486 12.2556 3.11574 12.2556C4.26196 12.7518 5.55262 12.9118 6.48572 12.879C8.33996 12.813 9.8424 12.1537 10.7161 11.0238C11.3732 10.1745 11.6244 9.11821 11.4051 8.12839Z" fill="#8A00EA"/>
<path d="M23.4573 19.941V7.9099H25.0333L25.144 9.03706L25.2375 8.89705C25.7191 8.17308 26.7484 7.7052 27.86 7.7052C30.0913 7.7052 31.7107 9.50627 31.7107 11.9875C31.7107 14.4784 30.0913 16.2852 27.86 16.2852C26.7922 16.2852 25.7634 15.8164 25.3004 15.1191L25.1906 14.9533V19.941H23.4573ZM27.5322 9.21429C26.2189 9.21429 25.1906 10.1598 25.1906 11.3663V12.6069C25.1906 13.8138 26.2189 14.7588 27.5322 14.7588C28.9965 14.7588 29.9429 13.6702 29.9429 11.9861C29.9429 10.302 28.9965 9.21429 27.5322 9.21429Z" fill="#151219"/>
<path d="M33.927 16.0778V7.91024H35.4897L35.6169 9.22084L35.7103 9.03519C36.1127 8.23368 36.931 7.75517 37.9009 7.75517C38.1777 7.75185 38.4529 7.79868 38.713 7.89341H38.7157V9.43617H38.7108C38.4709 9.40294 38.229 9.38562 37.9868 9.38433C36.4445 9.38433 35.6625 10.2474 35.6625 11.9501V16.0778H33.927Z" fill="#151219"/>
<path d="M44.1003 16.2852C41.6492 16.2852 39.8699 14.477 39.8699 11.9875C39.8699 9.50627 41.6492 7.7052 44.1003 7.7052C46.5513 7.7052 48.3307 9.50627 48.3307 11.9875C48.3307 14.477 46.5513 16.2852 44.1003 16.2852ZM44.1003 9.21296C42.6506 9.21296 41.6377 10.3534 41.6377 11.9861C41.6377 13.6547 42.6275 14.7774 44.1003 14.7774C45.573 14.7774 46.5624 13.656 46.5624 11.9861C46.5624 10.3534 45.55 9.21518 44.1003 9.21518V9.21296Z" fill="#151219"/>
<path d="M54.2684 20.1479C52.1926 20.1479 50.664 19.1089 50.2808 17.4367V17.4328L51.9099 16.9994V17.003C52.2533 18.069 53.0973 18.6561 54.2861 18.6561C55.8156 18.6561 56.7673 17.6813 56.7673 16.1075V14.7969L56.6583 14.952C56.1541 15.6689 55.1403 16.1142 54.0118 16.1142C51.7903 16.1142 50.178 14.3494 50.178 11.9183C50.178 9.51646 51.8262 7.7052 54.0118 7.7052C55.1399 7.7052 56.1829 8.17352 56.6702 8.8975L56.7637 9.03662L56.8723 7.91211H58.4332V16.0557C58.4297 18.5799 56.8351 20.1479 54.2684 20.1479ZM54.3543 9.21429C52.9365 9.21429 51.944 10.3264 51.944 11.917C51.944 13.5076 52.9352 14.6197 54.3543 14.6197C55.6676 14.6197 56.6959 13.6822 56.6959 12.4855V11.3468C56.6959 10.15 55.6676 9.21429 54.3543 9.21429Z" fill="#151219"/>
<path d="M64.3726 16.2852C62.1409 16.2852 60.5215 14.477 60.5215 11.9875C60.5215 9.50627 62.1409 7.7052 64.3726 7.7052C65.4936 7.7052 66.5299 8.17308 67.0124 8.89705L67.1059 9.03706L67.2145 7.91211H68.7754V16.0783H67.2131L67.1046 14.9533L67.0111 15.0934C66.5299 15.8169 65.4936 16.2852 64.3726 16.2852ZM64.7001 9.21518C63.2583 9.21518 62.2898 10.3295 62.2898 11.9883C62.2898 13.672 63.2357 14.7611 64.7001 14.7611C66.035 14.7611 67.0417 13.8359 67.0417 12.6091V11.3685C67.0417 10.1585 66.0129 9.21518 64.7001 9.21518Z" fill="#151219"/>
<path d="M75.4047 16.2848C73.3976 16.2848 72.5026 15.3313 72.5026 13.1931V9.40263H71.071V7.91038H72.5026V5.87537H74.2359V7.91038H76.4783V9.40263H74.2359V13.1412C74.2359 14.3761 74.6267 14.793 75.784 14.793C76.0383 14.7955 76.2923 14.7723 76.5421 14.7239H76.5474V16.1647H76.5443C76.1705 16.2497 75.788 16.29 75.4047 16.2848Z" fill="#151219"/>
<path d="M82.3702 16.2852C79.8996 16.2852 78.1743 14.5386 78.1743 12.0375C78.1743 9.52664 79.9532 7.70386 82.4047 7.70386C84.7388 7.70386 86.3073 9.31397 86.3073 11.7101C86.3072 11.9411 86.2899 12.1719 86.2554 12.4004V12.4044H79.9249L79.9315 12.4704C80.0844 13.936 81.0086 14.8107 82.4047 14.8107C83.3843 14.8107 84.1287 14.376 84.5567 13.5537V13.5506L86.1172 13.9666V13.9711C85.5709 15.3986 84.1353 16.2852 82.3702 16.2852ZM82.4047 9.12699C81.1721 9.12699 80.2997 9.83235 80.0122 11.0628L79.9949 11.1363H84.574L84.5634 11.0672C84.3653 9.81596 83.5988 9.12655 82.4047 9.12655V9.12699Z" fill="#151219"/>
<path d="M100.7 11.9866C100.7 14.5236 99.026 16.2844 96.851 16.2844C95.7464 16.2844 94.6932 15.801 94.2448 15.0438H94.1757V19.9437H92.4478V7.9126H94.0189L94.1226 8.98305H94.1744C94.6232 8.22363 95.6759 7.70569 96.8496 7.70569C99.0433 7.70569 100.7 9.44916 100.7 11.9866ZM98.9396 11.9866C98.9396 10.2586 97.9383 9.20724 96.5231 9.20724C95.1939 9.20724 94.1748 10.174 94.1748 11.365V12.6078C94.1748 13.816 95.1939 14.7655 96.5231 14.7655C97.9383 14.7655 98.9396 13.7296 98.9396 11.9866Z" fill="#8A00EA"/>
<path d="M108.75 7.9043L108.647 8.9752H108.596C108.147 8.21533 107.093 7.69739 105.902 7.69739C103.744 7.69739 102.051 9.4413 102.051 11.9796C102.051 14.518 103.744 16.2774 105.902 16.2774C107.093 16.2774 108.147 15.7594 108.596 14.9996H108.648L108.751 16.07H110.305V7.9043H108.75ZM108.578 12.6008C108.578 13.8095 107.576 14.759 106.229 14.759C104.831 14.759 103.812 13.7231 103.812 11.9792C103.812 10.2512 104.831 9.19894 106.229 9.19894C107.576 9.19894 108.578 10.1662 108.578 11.3576V12.6008Z" fill="#8A00EA"/>
<path d="M117.447 14.7263V16.1596C117.073 16.2456 116.69 16.2862 116.307 16.2805C114.357 16.2805 113.406 15.3997 113.406 13.1897V9.39083H111.973V7.90567H113.406V5.86755H115.134V7.90567H117.379V9.39083H115.134V13.1379C115.134 14.4157 115.565 14.7954 116.688 14.7954C116.943 14.798 117.197 14.7748 117.447 14.7263Z" fill="#8A00EA"/>
<path d="M126.759 10.9266V16.0724H125.031V11.531C125.031 9.8562 124.41 9.23457 123.303 9.23457C122.042 9.23457 121.213 10.029 121.213 11.6347V16.0724H119.485V3.98511H121.213V8.9581H121.282C121.818 8.16412 122.716 7.69757 123.838 7.69757C125.619 7.69757 126.759 8.85442 126.759 10.9266Z" fill="#8A00EA"/>
</svg>
