<svg width="125" height="24" viewBox="0 0 125 24" fill="none" xmlns="http://www.w3.org/2000/svg">
<path d="M8.49714 0.00696298C6.12008 -0.0887397 3.719 0.8067 2.0727 2.40883C0.717751 3.72873 9.02199e-05 5.39644 9.02199e-05 7.23207C0.00314009 7.72152 0.0632536 8.20888 0.179178 8.684C0.188351 8.72211 0.19796 8.75977 0.208443 8.79743C0.211501 8.80939 0.214559 8.8218 0.218053 8.83376C0.235962 8.90155 0.261733 8.98529 0.280952 9.05219C0.840492 7.88648 1.44153 7.2139 1.79359 6.89578C1.79621 6.8559 1.79883 6.8271 1.80363 6.77615C1.80975 6.70792 1.81761 6.64013 1.82635 6.57323L1.83465 6.51297C1.84251 6.45892 1.85168 6.4053 1.86129 6.35258C2.08406 5.13813 2.73926 4.26573 3.30579 3.71411C4.58823 2.46466 6.54596 1.74024 8.42332 1.81424C12.4327 1.97773 15.2881 4.94185 15.2881 9.02073C15.2881 12.7381 12.4759 15.6938 8.52946 16.2082C7.34356 16.3624 6.39483 16.2707 5.55923 16.1896C5.19407 16.1541 4.83633 16.1196 4.48121 16.108C2.85763 16.0726 1.86915 16.743 1.86915 16.743C1.30029 17.0861 0.828983 17.5732 0.501359 18.1565C0.173735 18.7399 0.00101208 19.3995 9.02199e-05 20.0708C-0.00102392 20.6243 0.113389 21.1718 0.335805 21.6772C0.558221 22.1826 0.883599 22.6345 1.29054 23.0032C1.69748 23.3719 2.17677 23.6491 2.69687 23.8164C3.21698 23.9838 3.76612 24.0376 4.30819 23.9742C4.85025 23.9109 5.37295 23.7319 5.84191 23.4489C6.31087 23.166 6.71547 22.7855 7.02909 22.3326C7.34271 21.8797 7.55825 21.3646 7.66154 20.8211C7.76482 20.2776 7.75351 19.7181 7.62835 19.1794C7.62267 19.155 7.61655 19.1302 7.61 19.1054C7.60607 19.0886 7.6017 19.0713 7.5969 19.0544C7.5886 19.0225 7.57986 18.9911 7.57025 18.9596C7.13381 18.9753 6.69682 18.9579 6.26291 18.9078C5.98817 18.8737 5.75754 18.8458 5.56011 18.8249L5.59112 18.8746L5.59374 18.8781L5.5968 18.883C5.63305 18.9392 5.66668 18.9973 5.6977 19.0562C5.7191 19.0974 5.73919 19.1386 5.75798 19.1812C5.88283 19.4608 5.94846 19.7639 5.9506 20.0708C5.96401 20.3505 5.92256 20.63 5.82864 20.8933C5.73473 21.1566 5.59023 21.3983 5.40351 21.6045C5.2168 21.8107 4.99158 21.9772 4.74094 22.0945C4.49029 22.2117 4.21919 22.2773 3.94336 22.2874C3.66753 22.2976 3.39246 22.2521 3.1341 22.1536C2.87574 22.0551 2.63922 21.9055 2.43828 21.7136C2.23733 21.5216 2.07594 21.2912 1.96347 21.0355C1.85101 20.7798 1.7897 20.504 1.7831 20.2241C1.7831 20.1732 1.7831 20.1218 1.7831 20.0708C1.78493 19.656 1.90855 19.2511 2.13821 18.9078C2.36787 18.5645 2.69315 18.2984 3.07253 18.1435C3.07253 18.1435 3.4591 17.9304 4.14968 17.8998C4.51616 17.8825 4.80488 17.8684 6.17992 18.0425C7.37544 18.194 8.80377 17.9982 9.09512 17.9539L9.11565 17.9508L9.13793 17.9472H9.14841C13.799 17.1665 17.0689 13.5489 17.0689 9.02073C17.0689 3.92014 13.512 0.213876 8.49714 0.00696298ZM11.2437 8.12839C10.8891 6.50854 9.23446 4.99458 6.442 5.4948C4.43928 5.85413 2.89694 7.00345 1.89929 8.20992C1.19736 9.05175 0.736097 10.139 0.736097 10.139C0.250376 11.2183 -0.0309225 12.1842 0.00271101 13.3606C0.0319766 14.3331 0.302355 15.1014 0.761868 15.7177C0.881745 15.8745 1.01505 16.0202 1.16023 16.1532C1.24584 16.0912 1.33437 16.0321 1.4258 15.976C1.4258 15.976 2.00937 15.5826 3.01007 15.4151C2.86986 15.3424 2.67374 15.1701 2.62918 15.1315C2.53463 15.0498 2.44548 14.9619 2.3623 14.8683C1.99189 14.4505 1.80189 13.9379 1.78267 13.3056C1.76664 12.7493 1.85437 12.1949 2.04125 11.6716C2.04125 11.6716 2.32954 10.7775 2.82094 9.98175C3.55782 8.80009 4.97174 7.59273 6.75213 7.27372C6.77615 7.26973 9.1436 6.86521 9.50396 8.51874C9.60574 8.98396 9.47863 9.49349 9.15452 9.91883C8.62163 10.6175 7.61787 11.0265 6.32843 11.0744C5.59811 11.0996 4.67515 10.972 3.89022 10.6499C3.83781 10.6282 3.68056 10.5506 3.63295 10.5254C3.10136 11.1625 2.86462 12.1581 2.86418 12.1608C2.86374 12.1634 2.86418 12.167 2.86418 12.167C2.90786 12.1896 3.07079 12.2556 3.07166 12.2556C4.20166 12.7518 5.47406 12.9118 6.39395 12.879C8.22196 12.813 9.70314 12.1537 10.5645 11.0238C11.2123 10.1745 11.46 9.11821 11.2437 8.12839Z" fill="white"/>
<path d="M23.1257 19.9414V7.91039H24.6794L24.7886 9.03755L24.8808 8.89754C25.3556 8.17357 26.3703 7.70569 27.4662 7.70569C29.6659 7.70569 31.2624 9.50676 31.2624 11.9879C31.2624 14.4789 29.6659 16.2857 27.4662 16.2857C26.4135 16.2857 25.3993 15.8169 24.9428 15.1195L24.8345 14.9538V19.9414H23.1257ZM27.143 9.21478C25.8483 9.21478 24.8345 10.1603 24.8345 11.3668V12.6073C24.8345 13.8143 25.8483 14.7593 27.143 14.7593C28.5866 14.7593 29.5196 13.6707 29.5196 11.9866C29.5196 10.3025 28.5866 9.21478 27.143 9.21478Z" fill="white"/>
<path d="M33.4473 16.0786V7.9111H34.9879L35.1132 9.22169L35.2054 9.03605C35.602 8.23454 36.4088 7.75602 37.3649 7.75602C37.6378 7.7527 37.9091 7.79954 38.1656 7.89426H38.1682V9.43702H38.1634C37.9269 9.40379 37.6884 9.38648 37.4497 9.38518C35.9292 9.38518 35.1582 10.2483 35.1582 11.951V16.0786H33.4473Z" fill="white"/>
<path d="M43.4772 16.2857C41.0608 16.2857 39.3066 14.4775 39.3066 11.9879C39.3066 9.50676 41.0608 7.70569 43.4772 7.70569C45.8936 7.70569 47.6478 9.50676 47.6478 11.9879C47.6478 14.4775 45.8936 16.2857 43.4772 16.2857ZM43.4772 9.21345C42.048 9.21345 41.0495 10.3539 41.0495 11.9866C41.0495 13.6552 42.0253 14.7779 43.4772 14.7779C44.9291 14.7779 45.9045 13.6565 45.9045 11.9866C45.9045 10.3539 44.9064 9.21566 43.4772 9.21566V9.21345Z" fill="white"/>
<path d="M53.5015 20.1484C51.4551 20.1484 49.9482 19.1094 49.5703 17.4372V17.4332L51.1764 16.9999V17.0035C51.515 18.0695 52.3471 18.6566 53.519 18.6566C55.0268 18.6566 55.9651 17.6818 55.9651 16.108V14.7974L55.8576 14.9525C55.3605 15.6694 54.3611 16.1147 53.2486 16.1147C51.0585 16.1147 49.469 14.3499 49.469 11.9188C49.469 9.51695 51.0939 7.70569 53.2486 7.70569C54.3607 7.70569 55.3889 8.17401 55.8694 8.89798L55.9616 9.03711L56.0686 7.9126H57.6074V16.0562C57.6039 18.5803 56.0319 20.1484 53.5015 20.1484ZM53.5863 9.21478C52.1885 9.21478 51.2101 10.3269 51.2101 11.9175C51.2101 13.5081 52.1872 14.6202 53.5863 14.6202C54.8809 14.6202 55.8947 13.6827 55.8947 12.4859V11.3473C55.8947 10.1505 54.8809 9.21478 53.5863 9.21478Z" fill="white"/>
<path d="M63.4629 16.2857C61.2628 16.2857 59.6663 14.4775 59.6663 11.9879C59.6663 9.50676 61.2628 7.70569 63.4629 7.70569C64.568 7.70569 65.5897 8.17357 66.0654 8.89754L66.1575 9.03755L66.2645 7.9126H67.8034V16.0788H66.2632L66.1562 14.9538L66.0641 15.0938C65.5897 15.8174 64.568 16.2857 63.4629 16.2857ZM63.7857 9.21566C62.3644 9.21566 61.4095 10.33 61.4095 11.9888C61.4095 13.6725 62.3421 14.7615 63.7857 14.7615C65.1018 14.7615 66.0942 13.8364 66.0942 12.6096V11.369C66.0942 10.159 65.0799 9.21566 63.7857 9.21566Z" fill="white"/>
<path d="M74.3385 16.2852C72.3598 16.2852 71.4775 15.3317 71.4775 13.1934V9.40299H70.0662V7.91074H71.4775V5.87573H73.1862V7.91074H75.3969V9.40299H73.1862V13.1416C73.1862 14.3764 73.5715 14.7934 74.7124 14.7934C74.9632 14.7958 75.2136 14.7727 75.4598 14.7242H75.465V16.1651H75.4619C75.0935 16.2501 74.7163 16.2904 74.3385 16.2852Z" fill="white"/>
<path d="M81.2041 16.2859C78.7685 16.2859 77.0676 14.5394 77.0676 12.0382C77.0676 9.52737 78.8214 7.70459 81.2382 7.70459C83.5392 7.70459 85.0855 9.3147 85.0855 11.7108C85.0855 11.9419 85.0684 12.1726 85.0344 12.4011V12.4051H78.7934L78.8 12.4711C78.9507 13.9368 79.8618 14.8114 81.2382 14.8114C82.2039 14.8114 82.9378 14.3767 83.3597 13.5544V13.5513L84.8981 13.9674V13.9718C84.3596 15.3993 82.9443 16.2859 81.2041 16.2859ZM81.2382 9.12772C80.023 9.12772 79.163 9.83309 78.8795 11.0635L78.8624 11.137H83.3768L83.3663 11.0679C83.171 9.81669 82.4154 9.12728 81.2382 9.12728V9.12772Z" fill="white"/>
<path d="M99.2764 11.9866C99.2764 14.5236 97.6258 16.2844 95.4815 16.2844C94.3926 16.2844 93.3543 15.801 92.9123 15.0438H92.8441V19.9437H91.1406V7.9126H92.6895L92.7917 8.98305H92.8428C93.2853 8.22363 94.3231 7.70569 95.4802 7.70569C97.6428 7.70569 99.2764 9.44916 99.2764 11.9866ZM97.5406 11.9866C97.5406 10.2586 96.5534 9.20724 95.1583 9.20724C93.8479 9.20724 92.8433 10.174 92.8433 11.365V12.6078C92.8433 13.816 93.8479 14.7655 95.1583 14.7655C96.5534 14.7655 97.5406 13.7296 97.5406 11.9866Z" fill="white"/>
<path d="M107.212 7.90393L107.11 8.97483H107.06C106.617 8.21497 105.578 7.69702 104.404 7.69702C102.276 7.69702 100.608 9.44094 100.608 11.9793C100.608 14.5176 102.276 16.277 104.404 16.277C105.578 16.277 106.617 15.7591 107.06 14.9992H107.111L107.213 16.0697H108.745V7.90393H107.212ZM107.042 12.6005C107.042 13.8091 106.054 14.7586 104.727 14.7586C103.348 14.7586 102.343 13.7227 102.343 11.9788C102.343 10.2509 103.348 9.19858 104.727 9.19858C106.054 9.19858 107.042 10.1658 107.042 11.3572V12.6005Z" fill="white"/>
<path d="M115.785 14.7256V16.159C115.417 16.245 115.04 16.2856 114.661 16.2799C112.74 16.2799 111.802 15.3991 111.802 13.1891V9.39022H110.389V7.90506H111.802V5.86694H113.505V7.90506H115.718V9.39022H113.505V13.1372C113.505 14.415 113.931 14.7948 115.038 14.7948C115.288 14.7974 115.539 14.7742 115.785 14.7256Z" fill="white"/>
<path d="M124.966 10.9263V16.0721H123.263V11.5306C123.263 9.85583 122.651 9.23421 121.559 9.23421C120.316 9.23421 119.499 10.0286 119.499 11.6343V16.0721H117.796V3.98474H119.499V8.95773H119.567C120.095 8.16375 120.98 7.6972 122.087 7.6972C123.842 7.6972 124.966 8.85405 124.966 10.9263Z" fill="white"/>
</svg>
