<?xml version="1.0" encoding="UTF-8"?><svg id="Logo" xmlns="http://www.w3.org/2000/svg" viewBox="0 0 228.8 32"><defs><style>.cls-1{fill:#151219;}.cls-1,.cls-2{stroke-width:0px;}.cls-2{fill:#8a00ea;}</style></defs><path class="cls-2" d="M11.49,0C8.28-.12,5.03,1.08,2.8,3.21.97,4.97,0,7.2,0,9.64c0,.65.09,1.3.24,1.94.01.05.03.1.04.15,0,.02,0,.03.01.05.02.09.06.2.09.29.76-1.55,1.57-2.45,2.05-2.88,0-.05,0-.09.01-.16,0-.09.02-.18.03-.27v-.08c.02-.07.03-.14.05-.21.3-1.62,1.19-2.78,1.95-3.52,1.73-1.67,4.38-2.63,6.92-2.53,5.42.22,9.28,4.17,9.28,9.61,0,4.96-3.8,8.9-9.14,9.58-1.6.21-2.89.08-4.02-.02-.49-.05-.98-.09-1.46-.11-2.2-.05-3.53.85-3.53.85-.77.46-1.41,1.11-1.85,1.88C.23,24.99,0,25.87,0,26.76c0,.74.15,1.47.45,2.14.3.67.74,1.28,1.29,1.77.55.49,1.2.86,1.9,1.08.7.22,1.45.29,2.18.21.73-.08,1.44-.32,2.07-.7.63-.38,1.18-.88,1.61-1.49.42-.6.72-1.29.86-2.02.14-.72.12-1.47-.04-2.19,0-.03-.02-.07-.02-.1,0-.02-.01-.05-.02-.07-.01-.04-.02-.08-.04-.13-.59.02-1.18,0-1.77-.07-.37-.05-.68-.08-.95-.11l.04.07h0s0,.01,0,.01c.05.08.09.15.14.23.03.05.06.11.08.17.17.37.26.78.26,1.19.02.37-.04.75-.16,1.1-.13.35-.32.67-.57.95-.25.27-.56.5-.9.65-.34.16-.71.24-1.08.26-.37.01-.75-.05-1.09-.18-.35-.13-.67-.33-.94-.59-.27-.26-.49-.56-.64-.9-.15-.34-.24-.71-.24-1.08v-.2c0-.55.17-1.09.48-1.55.31-.46.75-.81,1.26-1.02,0,0,.52-.28,1.46-.32.5-.02.89-.04,2.75.19,1.62.2,3.55-.06,3.94-.12h.03s.03,0,.03,0h.01c6.29-1.04,10.71-5.86,10.71-11.9,0-6.8-4.81-11.74-11.59-12.02ZM15.21,10.84c-.48-2.16-2.72-4.18-6.49-3.51-2.71.48-4.79,2.01-6.14,3.62-.95,1.12-1.57,2.57-1.57,2.57C.34,14.96-.04,16.25,0,17.81c.04,1.3.41,2.32,1.03,3.14.16.21.34.4.54.58.12-.08.24-.16.36-.24,0,0,.79-.52,2.14-.75-.19-.1-.45-.33-.52-.38-.13-.11-.25-.23-.36-.35-.5-.56-.76-1.24-.78-2.08-.02-.74.1-1.48.35-2.18,0,0,.39-1.19,1.05-2.25,1-1.58,2.91-3.19,5.32-3.61.03,0,3.23-.54,3.72,1.66.14.62-.03,1.3-.47,1.87-.72.93-2.08,1.48-3.82,1.54-.99.03-2.24-.14-3.3-.57-.07-.03-.28-.13-.35-.17-.72.85-1.04,2.18-1.04,2.18,0,0,0,0,0,0,.06.03.28.12.28.12,1.53.66,3.25.87,4.49.83,2.47-.09,4.48-.97,5.64-2.47.88-1.13,1.21-2.54.92-3.86Z"/><path class="cls-1" d="M31.28,26.59V10.55s2.1,0,2.1,0l.15,1.5.12-.19c.64-.97,2.01-1.59,3.5-1.59,2.97,0,5.13,2.4,5.13,5.71s-2.16,5.73-5.13,5.73c-1.42,0-2.8-.63-3.41-1.55l-.15-.22v6.65s-2.31,0-2.31,0ZM36.71,12.29c-1.75,0-3.12,1.26-3.12,2.87v1.65c0,1.61,1.37,2.87,3.12,2.87,1.95,0,3.21-1.45,3.21-3.7s-1.26-3.7-3.21-3.7Z"/><path class="cls-1" d="M45.24,21.44v-10.89s2.08,0,2.08,0l.17,1.75.12-.25c.54-1.07,1.63-1.71,2.92-1.71.37,0,.74.06,1.08.18h0s0,2.06,0,2.06h0c-.32-.04-.64-.07-.97-.07-2.06,0-3.1,1.15-3.1,3.42v5.5s-2.31,0-2.31,0Z"/><path class="cls-1" d="M58.8,21.71c-3.27,0-5.64-2.41-5.64-5.73s2.37-5.71,5.64-5.71,5.64,2.4,5.64,5.71-2.37,5.73-5.64,5.73ZM58.8,12.28c-1.93,0-3.28,1.52-3.28,3.7s1.32,3.72,3.28,3.72,3.28-1.5,3.28-3.72-1.35-3.69-3.28-3.69h0Z"/><path class="cls-1" d="M72.36,26.86c-2.77,0-4.81-1.39-5.32-3.61h0s2.17-.58,2.17-.58h0c.46,1.43,1.58,2.21,3.17,2.21,2.04,0,3.31-1.3,3.31-3.4v-1.75s-.15.21-.15.21c-.67.96-2.02,1.55-3.53,1.55-2.96,0-5.11-2.35-5.11-5.59s2.2-5.62,5.11-5.62c1.5,0,2.89.62,3.54,1.59l.12.19.14-1.5h2.08s0,10.86,0,10.86c0,3.37-2.13,5.46-5.55,5.46ZM72.47,12.29c-1.89,0-3.21,1.48-3.21,3.6s1.32,3.6,3.21,3.6c1.75,0,3.12-1.25,3.12-2.85v-1.52c0-1.6-1.37-2.84-3.12-2.84Z"/><path class="cls-1" d="M85.83,21.71c-2.98,0-5.13-2.41-5.13-5.73s2.16-5.71,5.13-5.71c1.49,0,2.88.62,3.52,1.59l.12.19.14-1.5h2.08s0,10.89,0,10.89h-2.08s-.14-1.5-.14-1.5l-.12.19c-.64.96-2.02,1.59-3.52,1.59ZM86.27,12.29c-1.92,0-3.21,1.49-3.21,3.7s1.26,3.7,3.21,3.7c1.78,0,3.12-1.23,3.12-2.87v-1.65c0-1.61-1.37-2.87-3.12-2.87Z"/><path class="cls-1" d="M100.54,21.71c-2.68,0-3.87-1.27-3.87-4.12v-5.05h-1.91s0-1.99,0-1.99h1.91v-2.71s2.31,0,2.31,0v2.71h2.99s0,1.99,0,1.99h-2.99v4.98c0,1.65.52,2.2,2.06,2.2.34,0,.68-.03,1.01-.09h0s0,1.92,0,1.92h0c-.5.11-1.01.17-1.52.16Z"/><path class="cls-1" d="M109.83,21.71c-3.29,0-5.59-2.33-5.59-5.66s2.37-5.78,5.64-5.78,5.2,2.15,5.2,5.34c0,.31-.02.62-.07.92h0s-8.44,0-8.44,0v.09c.21,1.95,1.45,3.12,3.31,3.12,1.31,0,2.3-.58,2.87-1.68h0s2.08.55,2.08.55h0c-.73,1.91-2.64,3.09-5,3.09ZM109.87,12.17c-1.64,0-2.81.94-3.19,2.58l-.02.1h6.11s-.01-.09-.01-.09c-.26-1.67-1.29-2.59-2.88-2.59h0Z"/><path class="cls-2" d="M134.26,15.98c0,3.38-2.23,5.73-5.13,5.73-1.47,0-2.88-.64-3.47-1.66h-.09v6.54s-2.3,0-2.3,0V10.55s2.09,0,2.09,0l.14,1.43h.07c.6-1.01,2-1.7,3.57-1.7,2.92,0,5.13,2.32,5.13,5.71ZM131.92,15.98c0-2.3-1.33-3.7-3.22-3.7-1.77,0-3.13,1.29-3.13,2.88v1.66c0,1.61,1.36,2.88,3.13,2.88,1.89,0,3.22-1.38,3.22-3.7Z"/><path class="cls-2" d="M143.59,10.53v2.05c-.34-.05-.67-.07-.97-.07-2,0-3.11,1.1-3.11,3.43v5.5s-2.3,0-2.3,0v-10.88s2.07,0,2.07,0l.16,1.66h.07c.51-1.17,1.66-1.86,2.99-1.86.41,0,.78.07,1.08.18Z"/><path class="cls-2" d="M145.13,15.98c0-3.36,2.39-5.71,5.64-5.71s5.64,2.35,5.64,5.71-2.39,5.73-5.64,5.73c-3.24,0-5.64-2.35-5.64-5.73ZM154.06,15.98c0-2.23-1.38-3.7-3.29-3.7s-3.29,1.47-3.29,3.7,1.38,3.73,3.29,3.73,3.29-1.47,3.29-3.73Z"/><path class="cls-2" d="M158.98,18.63l2.07-.51c.37,1.17,1.27,1.75,2.48,1.75,1.29,0,2.12-.62,2.12-1.5,0-.69-.51-1.15-2.02-1.45l-1.33-.25c-2.16-.44-3.22-1.43-3.22-3.01,0-1.96,1.66-3.38,4.33-3.38,2.32,0,3.89,1.08,4.26,2.88l-2.09.48c-.32-1.04-1.1-1.54-2.28-1.54-1.24,0-1.98.58-1.98,1.43,0,.62.37.99,2.02,1.31l1.33.28c2.23.41,3.2,1.4,3.2,3.08,0,2.05-1.61,3.52-4.35,3.52-2.39,0-4.17-1.15-4.53-3.08Z"/><path class="cls-2" d="M182.18,15.98c0,3.38-2.23,5.73-5.13,5.73-1.47,0-2.88-.64-3.47-1.66h-.09v6.54s-2.3,0-2.3,0V10.55s2.09,0,2.09,0l.14,1.43h.07c.6-1.01,2-1.7,3.57-1.7,2.92,0,5.13,2.32,5.13,5.71ZM179.83,15.98c0-2.3-1.33-3.7-3.22-3.7-1.77,0-3.13,1.29-3.13,2.88v1.66c0,1.61,1.36,2.88,3.13,2.88,1.89,0,3.22-1.38,3.22-3.7Z"/><path class="cls-2" d="M195.17,16.54h-8.45c.18,2.14,1.54,3.22,3.31,3.22,1.29,0,2.3-.58,2.88-1.68l2.07.55c-.71,1.86-2.6,3.08-4.99,3.08-3.27,0-5.59-2.3-5.59-5.66s2.42-5.78,5.64-5.78c3.04,0,5.2,2.09,5.2,5.34,0,.32-.02.6-.07.92ZM186.81,14.86h6.12c-.25-1.84-1.36-2.69-2.9-2.69-1.63,0-2.85.94-3.22,2.69Z"/><path class="cls-2" d="M197.45,15.98c0-3.36,2.35-5.71,5.57-5.71,2.67,0,4.76,1.56,5.18,4.03l-2.32.35c-.28-1.45-1.43-2.37-2.88-2.37-1.79,0-3.2,1.43-3.2,3.7s1.4,3.7,3.22,3.7c1.45,0,2.67-.87,2.95-2.35l2.23.34c-.39,2.39-2.53,4.03-5.2,4.03-3.2,0-5.54-2.35-5.54-5.73Z"/><path class="cls-2" d="M217.71,19.64v1.91c-.37.09-.87.16-1.52.16-2.6,0-3.87-1.17-3.87-4.12v-5.06h-1.91s0-1.98,0-1.98h1.91v-2.72s2.3,0,2.3,0v2.72h2.99s0,1.98,0,1.98h-2.99v4.99c0,1.7.58,2.21,2.07,2.21.32,0,.69-.02,1.01-.09Z"/><path class="cls-2" d="M219.92,18.63l2.07-.51c.37,1.17,1.27,1.75,2.48,1.75,1.29,0,2.12-.62,2.12-1.5,0-.69-.51-1.15-2.02-1.45l-1.33-.25c-2.16-.44-3.22-1.43-3.22-3.01,0-1.96,1.66-3.38,4.33-3.38,2.32,0,3.89,1.08,4.26,2.88l-2.09.48c-.32-1.04-1.1-1.54-2.28-1.54-1.24,0-1.98.58-1.98,1.43,0,.62.37.99,2.02,1.31l1.33.28c2.23.41,3.2,1.4,3.2,3.08,0,2.05-1.61,3.52-4.35,3.52-2.39,0-4.17-1.15-4.53-3.08Z"/></svg>